<svg width="16" height="5" viewBox="0 0 16 5" fill="none" xmlns="http://www.w3.org/2000/svg">
<g clip-path="url(#clip0_1_3)">
<path d="M2.39667 4.86487H0.0181046V0.194601H1.03962V4.01514H2.39667V4.86487ZM6.9103 4.86487H5.82914L5.55326 3.9892H3.96506L3.68172 4.86487H2.60801L4.27077 0.194601H5.24755L6.9103 4.86487ZM5.31465 3.24325L4.77034 1.42703L4.75543 1.44001L4.20366 3.24325H5.31465ZM10.1251 3.52865C10.1251 3.96974 10.0008 4.31568 9.75226 4.56649C9.48881 4.83028 9.10605 4.96217 8.60399 4.96217C7.8683 4.96217 7.38861 4.70271 7.16492 4.18379C7.1003 4.03244 7.06799 3.8119 7.06799 3.52217H8.16407V3.70379C8.16407 3.81622 8.20383 3.92001 8.28337 4.01514C8.3629 4.10595 8.46481 4.15136 8.58908 4.15136C8.93207 4.15136 9.10356 3.94163 9.10356 3.52217C9.10356 3.30163 8.95692 3.10055 8.66364 2.91893C8.37533 2.76325 8.08702 2.60757 7.79871 2.4519C7.46069 2.24865 7.25937 2.0173 7.19475 1.75784C7.16492 1.65406 7.15001 1.53298 7.15001 1.3946C7.15001 0.988115 7.28174 0.672439 7.54519 0.447574C7.81362 0.218385 8.18147 0.10379 8.64873 0.10379C9.10605 0.10379 9.45898 0.220547 9.70752 0.454061C9.94116 0.678926 10.058 0.992439 10.058 1.3946H9.05883C9.05883 1.2692 9.01906 1.15676 8.93952 1.0573C8.86496 0.95352 8.75809 0.901628 8.6189 0.901628C8.46978 0.901628 8.35545 0.95352 8.27591 1.0573C8.20135 1.14379 8.16407 1.25622 8.16407 1.3946C8.16407 1.63244 8.33308 1.84649 8.6711 2.03676C8.98426 2.20974 9.29991 2.38487 9.61805 2.56217C9.95607 2.81298 10.1251 3.13514 10.1251 3.52865ZM14.2646 4.86487H13.258V2.88001H11.6922V4.86487H10.6856V0.194601H11.6922V2.05622H13.258V0.194601H14.2646V4.86487ZM15.9368 4.86487H14.9973V3.88541H15.9368V4.86487Z" fill="#151516"/>
</g>
<defs>
<clipPath id="clip0_1_3">
<rect width="16" height="5" fill="white"/>
</clipPath>
</defs>
</svg>
