<svg width="90" height="90" viewBox="0 0 90 90" fill="none" xmlns="http://www.w3.org/2000/svg">
<circle cx="45" cy="45" r="45" fill="#D4A5B5"/>
<path d="M34.8456 43.1068L23.8964 48.7428C22.5477 49.4371 21.7 50.8268 21.7 52.3438V54.45C21.7 56.6868 23.5133 58.5 25.7502 58.5C26.4958 58.5 27.1002 59.1044 27.1002 59.85C27.1002 60.5956 26.4958 61.2 25.7502 61.2C22.0221 61.2 19 58.178 19 54.45V52.3438C19 49.8156 20.4128 47.4993 22.6607 46.3422L31.7266 41.6755C28.833 39.1526 27.1 35.4752 27.1 31.5C27.1 24.0442 33.1442 18 40.6 18C45.1268 18 49.2757 20.2463 51.7725 23.9199C52.1916 24.5365 52.0314 25.3762 51.4148 25.7953C50.7982 26.2144 49.9585 26.0542 49.5394 25.4376C47.5401 22.4959 44.223 20.7 40.6 20.7C34.6353 20.7 29.8 25.5353 29.8 31.5C29.8 35.3116 31.7894 38.7783 34.9847 40.7275C35.6212 41.1158 35.8225 41.9465 35.4342 42.583C35.2889 42.8213 35.0815 42.9986 34.8456 43.1068ZM45.8954 54.6305L34.8741 59.6401C33.4283 60.2973 32.5 61.739 32.5 63.3271V65.25C32.5 67.4868 34.3132 69.3 36.55 69.3H66.25C68.4868 69.3 70.3 67.4868 70.3 65.25V63.3271C70.3 61.739 69.3717 60.2973 67.9259 59.6401L56.9046 54.6305C55.2235 55.3821 53.3605 55.8 51.4 55.8C49.4395 55.8 47.5765 55.3821 45.8954 54.6305ZM43.0898 52.9399C39.9306 50.4689 37.9 46.6216 37.9 42.3C37.9 34.8442 43.9442 28.8 51.4 28.8C58.8558 28.8 64.9 34.8442 64.9 42.3C64.9 46.6216 62.8694 50.4689 59.7102 52.9399L69.0432 57.1822C71.4529 58.2775 73 60.6802 73 63.3271V65.25C73 68.9779 69.9779 72 66.25 72H36.55C32.8221 72 29.8 68.9779 29.8 65.25V63.3271C29.8 60.6802 31.3471 58.2775 33.7568 57.1822L43.0898 52.9399ZM51.4 53.1C57.3647 53.1 62.2 48.2647 62.2 42.3C62.2 36.3353 57.3647 31.5 51.4 31.5C45.4353 31.5 40.6 36.3353 40.6 42.3C40.6 48.2647 45.4353 53.1 51.4 53.1Z" fill="#C9347B"/>
</svg>
