<svg width="90" height="90" viewBox="0 0 90 90" fill="none" xmlns="http://www.w3.org/2000/svg">
<circle cx="45" cy="45" r="45" fill="#D4A5B5"/>
<path d="M61.7648 40.0065L63.8727 27.492L72.3071 40.0065H61.7648ZM60.9945 43.0076H71.8249L51.2438 66.5901L60.9945 43.0076ZM31.6605 43.0076L41.4112 66.5901L20.8271 43.0076H31.6605ZM30.8902 40.0065H20.3479L28.7823 27.492L30.8902 40.0065ZM33.5925 37.8007L31.4361 25.0011H43.2946L33.5925 37.8007ZM49.3604 25.0011H61.2189L59.0625 37.8007L49.3604 25.0011ZM35.7124 40.0065L46.3275 26.0004L56.9426 40.0065H35.7124ZM57.7159 43.0076L46.3275 70.5575L34.9391 43.0076H57.7159ZM76.4015 40.6757L64.27 22.6692C64.2669 22.6632 64.2578 22.6602 64.2548 22.6542C64.1274 22.4712 63.9606 22.3211 63.7605 22.2101C63.7028 22.1771 63.6391 22.1681 63.5815 22.1411C63.4723 22.099 63.3753 22.039 63.257 22.021C63.2085 22.012 63.1599 22.03 63.1084 22.024C63.075 22.024 63.0447 22 63.0083 22H29.6467C29.6103 22 29.58 22.024 29.5436 22.024C29.4951 22.03 29.4496 22.012 29.398 22.021C29.2797 22.039 29.1827 22.099 29.0765 22.1411C29.0159 22.1681 28.9522 22.1771 28.8976 22.2101C28.6974 22.3211 28.5276 22.4712 28.4032 22.6542C28.3972 22.6602 28.3911 22.6632 28.385 22.6692L16.2535 40.6757C15.8775 41.2369 15.923 41.9782 16.3688 42.4884L45.1811 75.5003C45.2448 75.5753 45.3327 75.6084 45.4085 75.6684C45.4753 75.7194 45.5329 75.7764 45.6087 75.8154C46.0606 76.0615 46.5944 76.0615 47.0463 75.8154C47.1221 75.7764 47.1797 75.7194 47.2465 75.6684C47.3223 75.6084 47.4102 75.5753 47.477 75.5003L76.2892 42.4884C76.7351 41.9782 76.7806 41.2369 76.4015 40.6757Z" fill="#C9347B"/>
</svg>
