<svg width="90" height="90" viewBox="0 0 90 90" fill="none" xmlns="http://www.w3.org/2000/svg">
<circle cx="45" cy="45" r="45" fill="#D4A5B5"/>
<path d="M67.6152 71.9682C68.2675 71.9682 68.8085 71.4272 68.8085 70.7749V32.2239C68.8085 32.208 68.8085 32.1762 68.8085 32.1603C68.8085 31.8421 68.6812 31.5398 68.4744 31.3329L57.353 18.4296L57.3371 18.4137C57.3371 18.4137 57.3371 18.4137 57.3212 18.3978C57.2893 18.35 57.2416 18.3182 57.2098 18.2864C57.2098 18.2864 57.2098 18.2864 57.1939 18.2705C57.1461 18.2387 57.1143 18.2068 57.0666 18.175L57.0507 18.1591C56.9552 18.0955 56.8598 18.0636 56.7484 18.0318H56.7325C56.637 18.0159 56.5415 18 56.4461 18H23.1933C22.541 18 22 18.541 22 19.1933V70.8067C22 71.459 22.541 72 23.1933 72H67.6152V71.9682ZM57.6394 22.3754L65.0218 30.9511H57.6394V22.3754ZM24.3866 20.3547H55.2528V32.1444C55.2528 32.7967 55.7938 33.3377 56.4461 33.3377H66.4378V69.5657H24.3866V20.3547Z" fill="#C9347B"/>
<path d="M33.9167 46.416C30.5596 46.416 27.8389 49.1367 27.8389 52.4938C27.8389 53.9735 28.3639 55.3259 29.2549 56.3759V65.1903C29.2549 65.6358 29.5095 66.0495 29.9072 66.2563C30.305 66.4632 30.7823 66.4313 31.1482 66.1609L33.9326 64.1721L36.701 66.1609C36.9078 66.3041 37.1465 66.3836 37.401 66.3836C37.592 66.3836 37.767 66.3359 37.942 66.2563C38.3398 66.0495 38.5943 65.6358 38.5943 65.1903V56.3759C39.4694 55.3259 40.0103 53.9735 40.0103 52.4938C39.9944 49.1526 37.2738 46.416 33.9167 46.416ZM33.9167 48.8026C35.9532 48.8026 37.6079 50.4573 37.6079 52.4938C37.6079 54.5303 35.9532 56.185 33.9167 56.185C32.8984 56.185 31.9597 55.7713 31.2914 55.0872C31.2914 55.0872 31.2914 55.0872 31.2755 55.0713C30.6232 54.4031 30.2254 53.4962 30.2254 52.4938C30.2254 50.4573 31.8801 48.8026 33.9167 48.8026ZM34.6167 61.7218C34.203 61.4195 33.6462 61.4195 33.2166 61.7218L31.6255 62.8674V58.1261C32.3256 58.4125 33.1052 58.5716 33.9007 58.5716C34.7122 58.5716 35.4759 58.4125 36.1759 58.1261V62.8674L34.6167 61.7218Z" fill="#C9347B"/>
<path d="M29.478 27.546H33.917C34.5693 27.546 35.1102 27.005 35.1102 26.3527C35.1102 25.7004 34.5693 25.1594 33.917 25.1594H29.478C28.8256 25.1594 28.2847 25.7004 28.2847 26.3527C28.2847 27.005 28.8256 27.546 29.478 27.546Z" fill="#C9347B"/>
<path d="M46.6294 30.251H29.478C28.8256 30.251 28.2847 30.7919 28.2847 31.4443C28.2847 32.0966 28.8256 32.6375 29.478 32.6375H46.6294C47.2817 32.6375 47.8227 32.0966 47.8227 31.4443C47.8227 30.7919 47.2817 30.251 46.6294 30.251Z" fill="#C9347B"/>
<path d="M46.6294 35.3584H29.478C28.8256 35.3584 28.2847 35.8994 28.2847 36.5517C28.2847 37.204 28.8256 37.745 29.478 37.745H46.6294C47.2817 37.745 47.8227 37.204 47.8227 36.5517C47.8227 35.8994 47.2817 35.3584 46.6294 35.3584Z" fill="#C9347B"/>
</svg>
