<svg width="96" height="96" viewBox="0 0 96 96" fill="none" xmlns="http://www.w3.org/2000/svg">
<circle cx="48" cy="48" r="48" fill="#D4A5B5"/>
<path d="M48.5 18C32.2331 18 19 31.2331 19 47.5C19 53.049 20.5424 58.4362 23.4664 63.1142C22.3019 67.1974 20.1967 74.9191 20.1745 75C20.0659 75.3989 20.1823 75.8254 20.4803 76.1135C20.7784 76.4006 21.2094 76.5025 21.6027 76.3829L33.2957 72.7851C37.8762 75.5441 43.1217 77 48.5 77C64.7668 77 78 63.7669 78 47.5C78 31.2331 64.7668 18 48.5 18ZM48.5 74.7308C43.3731 74.7308 38.3782 73.2981 34.0547 70.5878C33.8718 70.4737 33.6625 70.415 33.4519 70.415C33.34 70.415 33.227 70.4316 33.1184 70.4648L22.9079 73.6073C23.6581 70.8693 25.0055 65.9719 25.7877 63.2484C25.8786 62.9326 25.8276 62.5924 25.6493 62.3165C22.7839 57.9077 21.2692 52.7841 21.2692 47.5C21.2692 32.4852 33.4852 20.2692 48.5 20.2692C63.5148 20.2692 75.7308 32.4852 75.7308 47.5C75.7308 62.5148 63.5148 74.7308 48.5 74.7308Z" fill="black"/>
<path d="M67.7721 54.4505C65.6778 53.2871 63.894 52.1214 62.592 51.2704C61.5981 50.6212 60.8801 50.1525 60.3539 49.8888C58.8824 49.1541 57.7666 49.6738 57.3423 50.1015C57.2891 50.1546 57.2414 50.2123 57.2005 50.2743C55.6725 52.5668 53.6758 54.7607 53.0919 54.8782C52.417 54.773 49.257 52.9768 46.1157 50.3608C42.9092 47.6882 40.8925 45.1298 40.5956 43.388C42.6532 41.2706 43.3945 39.9387 43.3945 38.4229C43.3945 36.8606 39.7502 30.3377 39.0909 29.6785C38.4294 29.018 36.9402 28.915 34.6621 29.3681C34.4428 29.4125 34.241 29.52 34.0827 29.6785C33.8067 29.9543 27.3559 36.5315 30.4217 44.5038C33.7867 53.2527 42.4249 63.4221 53.4376 65.0743C54.6885 65.2615 55.8619 65.3545 56.9611 65.3545C63.4397 65.3545 67.2635 62.0948 68.3404 55.6284C68.4192 55.1552 68.192 54.6832 67.7721 54.4505ZM53.7744 62.8293C42.1291 61.0831 34.7928 49.5452 32.5403 43.6882C30.3054 37.8789 34.4272 32.7001 35.4621 31.5288C36.3043 31.3859 37.1896 31.326 37.5596 31.3837C38.3319 32.4585 41.0078 37.5132 41.1252 38.4229C41.1252 39.0191 40.9313 39.8479 38.6211 42.1592C38.4084 42.372 38.2887 42.66 38.2887 42.9614C38.2887 48.9026 50.8192 57.1441 53.0387 57.1441C54.9689 57.1441 57.4851 53.8998 58.9178 51.7868C59.001 51.7901 59.1405 51.8189 59.3388 51.9186C59.7478 52.1236 60.4558 52.5857 61.3511 53.1707C62.5334 53.943 64.1035 54.969 65.9571 56.0316C65.1151 60.0825 62.7627 64.1801 53.7744 62.8293Z" fill="black"/>
</svg>
