<svg width="96" height="96" viewBox="0 0 96 96" fill="none" xmlns="http://www.w3.org/2000/svg">
<g id="&#208;&#184;&#208;&#189;&#209;&#129;&#209;&#130;&#208;&#176;&#208;&#179;&#209;&#128;&#208;&#176;&#208;&#188;">
<circle id="Ellipse 13" cx="48" cy="48" r="48" fill="#D4A5B5"/>
<path id="Vector" d="M48 36.2653C45.6791 36.2653 43.4103 36.9535 41.4806 38.243C39.5508 39.5324 38.0467 41.3651 37.1586 43.5093C36.2704 45.6536 36.038 48.013 36.4908 50.2893C36.9436 52.5656 38.0612 54.6566 39.7023 56.2977C41.3434 57.9388 43.4344 59.0564 45.7107 59.5092C47.987 59.962 50.3464 59.7296 52.4907 58.8414C54.6349 57.9533 56.4676 56.4492 57.757 54.5194C59.0465 52.5897 59.7347 50.3209 59.7347 48C59.7312 44.8889 58.4937 41.9061 56.2938 39.7062C54.0939 37.5063 51.1111 36.2688 48 36.2653ZM48 56.6735C46.2845 56.6735 44.6076 56.1648 43.1813 55.2117C41.7549 54.2587 40.6432 52.9041 39.9868 51.3192C39.3303 49.7343 39.1585 47.9904 39.4932 46.3079C39.8279 44.6254 40.6539 43.0799 41.8669 41.8669C43.0799 40.6539 44.6254 39.8279 46.3079 39.4932C47.9904 39.1585 49.7343 39.3303 51.3192 39.9868C52.9041 40.6432 54.2587 41.7549 55.2117 43.1813C56.1648 44.6076 56.6735 46.2845 56.6735 48C56.6709 50.2995 55.7562 52.5042 54.1302 54.1302C52.5042 55.7562 50.2995 56.6709 48 56.6735ZM59.2245 23H36.7755C33.1233 23.0042 29.6219 24.4568 27.0393 27.0393C24.4568 29.6219 23.0042 33.1233 23 36.7755V59.2245C23.0042 62.8767 24.4568 66.3781 27.0393 68.9607C29.6219 71.5432 33.1233 72.9958 36.7755 73H59.2245C62.8767 72.9958 66.3781 71.5432 68.9607 68.9607C71.5432 66.3781 72.9958 62.8767 73 59.2245V36.7755C72.9958 33.1233 71.5432 29.6219 68.9607 27.0393C66.3781 24.4568 62.8767 23.0042 59.2245 23ZM69.9388 59.2245C69.9356 62.0651 68.8057 64.7885 66.7971 66.7971C64.7885 68.8057 62.0651 69.9356 59.2245 69.9388H36.7755C33.9349 69.9356 31.2115 68.8057 29.2029 66.7971C27.1943 64.7885 26.0644 62.0651 26.0612 59.2245V36.7755C26.0644 33.9349 27.1943 31.2115 29.2029 29.2029C31.2115 27.1943 33.9349 26.0644 36.7755 26.0612H59.2245C62.0651 26.0644 64.7885 27.1943 66.7971 29.2029C68.8057 31.2115 69.9356 33.9349 69.9388 36.7755V59.2245ZM63.8163 34.7347C63.8163 35.2392 63.6667 35.7325 63.3864 36.152C63.1061 36.5715 62.7077 36.8984 62.2415 37.0915C61.7754 37.2846 61.2625 37.3351 60.7676 37.2367C60.2728 37.1383 59.8182 36.8953 59.4615 36.5385C59.1047 36.1818 58.8617 35.7272 58.7633 35.2324C58.6649 34.7375 58.7154 34.2246 58.9085 33.7585C59.1016 33.2923 59.4285 32.8939 59.848 32.6136C60.2675 32.3333 60.7608 32.1837 61.2653 32.1837C61.9416 32.1845 62.59 32.4535 63.0683 32.9317C63.5465 33.41 63.8155 34.0584 63.8163 34.7347Z" fill="#151516"/>
</g>
</svg>
