<svg width="96" height="96" viewBox="0 0 96 96" fill="none" xmlns="http://www.w3.org/2000/svg">
<g id="&#209;&#130;&#208;&#181;&#208;&#187;&#208;&#181;&#208;&#179;&#209;&#128;&#208;&#176;&#208;&#188;">
<circle id="Ellipse 12" cx="48" cy="48" r="48" fill="#D4A5B5"/>
<path id="Vector" d="M74.4439 23.7737C74.0036 23.3942 73.4675 23.1421 72.8938 23.0449C72.3201 22.9477 71.7307 23.009 71.1894 23.2223L22.0276 42.4902C21.385 42.7421 20.8413 43.1948 20.4781 43.7806C20.1148 44.3664 19.9515 45.0538 20.0125 45.7399C20.0735 46.4261 20.3556 47.0741 20.8166 47.5869C21.2775 48.0998 21.8925 48.45 22.5696 48.585L35.9136 51.2477V67.6796C35.9069 68.3118 36.0917 68.9312 36.4438 69.4569C36.7959 69.9825 37.2988 70.3899 37.8868 70.6256C38.2807 70.7902 38.7033 70.8755 39.1304 70.8766C39.5477 70.8753 39.9606 70.7913 40.3451 70.6296C40.7296 70.4678 41.0781 70.2315 41.3704 69.9343L48.9878 62.3349L60.2271 72.2022C60.8063 72.7154 61.5537 72.9992 62.3283 73C62.6651 72.9996 62.9997 72.9466 63.32 72.843C63.8482 72.6759 64.3233 72.3735 64.6979 71.9659C65.0724 71.5584 65.3333 71.0601 65.4545 70.5206L75.4739 26.9028C75.6047 26.3371 75.5779 25.7465 75.3964 25.1949C75.2148 24.6434 74.8854 24.1519 74.4439 23.7737ZM22.1352 45.552C22.1087 45.3224 22.1606 45.0905 22.2825 44.894C22.4044 44.6974 22.5892 44.5476 22.807 44.4688L67.8714 26.8067L36.732 49.243L22.9875 46.5006C22.7592 46.4612 22.5509 46.3461 22.3962 46.174C22.2416 46.0018 22.1496 45.7827 22.1352 45.552ZM39.8634 68.4312C39.7144 68.5798 39.5246 68.6811 39.3179 68.7221C39.1112 68.7631 38.897 68.7421 38.7023 68.6616C38.5076 68.5812 38.3412 68.4449 38.2242 68.2701C38.1071 68.0953 38.0446 67.8898 38.0446 67.6796V52.7276L47.3848 60.9277L39.8634 68.4312ZM73.3968 26.4278L63.3773 70.0456C63.3361 70.2251 63.2488 70.3908 63.1241 70.5265C62.9993 70.6622 62.8414 70.7633 62.6657 70.8198C62.4901 70.8763 62.3027 70.8863 62.122 70.8489C61.9413 70.8115 61.7734 70.7278 61.6348 70.6062L38.6853 50.4582L73.2246 25.5723C73.3154 25.6931 73.3781 25.8326 73.4079 25.9806C73.4377 26.1286 73.4339 26.2815 73.3968 26.4278Z" fill="#151516"/>
</g>
</svg>
