<svg width="96" height="96" viewBox="0 0 96 96" fill="none" xmlns="http://www.w3.org/2000/svg">
<circle cx="48" cy="48" r="48" fill="#D4A5B5"/>
<path fill-rule="evenodd" clip-rule="evenodd" d="M28.7143 29.075C28.7143 28.4816 28.2343 28 27.6429 28H19.0714C18.48 28 18 28.4816 18 29.075C18 29.075 17.9968 39.4853 22.0929 49.8945C26.25 60.4618 34.5846 71 51.2143 71C51.8057 71 52.2857 70.5184 52.2857 69.925V54.9105C60.3257 55.4426 66.7575 61.9162 67.2546 69.9916C67.29 70.5582 67.7582 71 68.3239 71H76.9286C77.52 71 78 70.5184 78 69.925C78 61.4443 73.7346 53.9537 67.2418 49.5C73.7346 45.0463 78 37.5557 78 29.075C78 28.4816 77.52 28 76.9286 28H68.3239C67.7582 28 67.29 28.4418 67.2546 29.0084C66.7575 37.0838 60.3257 43.5574 52.2857 44.0895V29.075C52.2857 28.4816 51.8057 28 51.2143 28H42.6429C42.0514 28 41.5714 28.4816 41.5714 29.075V55.6264C39.8443 55.0287 36.5882 53.4388 33.8004 49.443C31.0061 45.4376 28.7143 39.0876 28.7143 29.075ZM26.58 30.15C26.7857 42.7909 30.6171 49.7043 34.3854 53.485C38.4289 57.5421 42.4918 58.0893 42.4918 58.0893C42.7993 58.1333 43.11 58.0409 43.3446 57.8366C43.5793 57.6335 43.7143 57.3368 43.7143 57.025V30.15H50.1429V45.2C50.1429 45.7934 50.6229 46.275 51.2143 46.275C60.5421 46.275 68.2414 39.2241 69.3032 30.15H75.8325C75.4639 38.0093 71.0818 44.8238 64.6993 48.5723C64.3704 48.7647 64.1689 49.1184 64.1689 49.5C64.1689 49.8816 64.3704 50.2353 64.6993 50.4277C71.0818 54.1763 75.4639 60.9907 75.8325 68.85H69.3032C68.2414 59.7759 60.5421 52.725 51.2143 52.725C50.6229 52.725 50.1429 53.2066 50.1429 53.8V68.8339C35.3421 68.3899 27.8743 58.7343 24.0857 49.1055C20.9164 41.0494 20.295 32.9934 20.1729 30.15H26.58Z" fill="black"/>
</svg>
