<svg width="90" height="90" viewBox="0 0 90 90" fill="none" xmlns="http://www.w3.org/2000/svg">
<circle cx="45" cy="45" r="45" fill="#D4A5B5"/>
<path d="M43.7661 26.9122V45.4852L35.8665 53.3848C35.413 53.8383 35.413 54.5766 35.8665 55.0301C36.0985 55.2622 36.3938 55.3676 36.6892 55.3676C36.9845 55.3676 37.2903 55.2516 37.5118 55.0301L45.7595 46.7825C45.8649 46.677 45.9599 46.5399 46.0126 46.4028C46.0126 46.3922 46.0126 46.3922 46.0231 46.3817C46.0759 46.2446 46.1075 46.1075 46.1075 45.9598V26.9122C46.1075 26.2688 45.5802 25.7415 44.9368 25.7415C44.2935 25.7415 43.7661 26.2688 43.7661 26.9122Z" fill="#C9347B"/>
<path d="M44.9367 18C30.0867 18 18 30.0762 18 44.9262C18 59.7762 30.0762 71.8523 44.9262 71.8523C51.7078 71.8523 58.1941 69.3211 63.1828 64.7227C63.6574 64.2902 63.6891 63.552 63.2461 63.0773C62.8137 62.6027 62.0754 62.5711 61.6008 63.0141C57.0445 67.2117 51.1277 69.532 44.9262 69.532C31.3629 69.532 20.3309 58.5 20.3309 44.9367C20.3309 31.3734 31.3734 20.3309 44.9367 20.3309C58.5 20.3309 69.532 31.3629 69.532 44.9262C69.532 49.5246 68.2559 54.007 65.8406 57.8883C65.5031 58.4367 65.6719 59.1539 66.2203 59.4914C66.7688 59.8289 67.4859 59.6602 67.8234 59.1117C70.4707 54.8719 71.8629 49.957 71.8629 44.9262C71.8629 30.0762 59.7867 18 44.9367 18Z" fill="#C9347B"/>
</svg>
