<svg width="103" height="37" viewBox="0 0 103 37" fill="none" xmlns="http://www.w3.org/2000/svg">
<g clip-path="url(#clip0_6_279)">
<path d="M15.4287 36H0.116699V1.44001H6.6927V29.712H15.4287V36ZM44.4852 36H37.5252L35.7492 29.52H25.5252L23.7012 36H16.7892L27.4932 1.44001H33.7812L44.4852 36ZM34.2132 24L30.7092 10.56L30.6132 10.656L27.0612 24H34.2132ZM65.1803 26.112C65.1803 29.376 64.3803 31.936 62.7803 33.792C61.0843 35.744 58.6203 36.72 55.3883 36.72C50.6523 36.72 47.5643 34.8 46.1243 30.96C45.7083 29.84 45.5003 28.208 45.5003 26.064H52.5563V27.408C52.5563 28.24 52.8123 29.008 53.3243 29.712C53.8363 30.384 54.4923 30.72 55.2923 30.72C57.5003 30.72 58.6043 29.168 58.6043 26.064C58.6043 24.432 57.6603 22.944 55.7723 21.6C53.9163 20.448 52.0603 19.296 50.2043 18.144C48.0283 16.64 46.7323 14.928 46.3163 13.008C46.1243 12.24 46.0283 11.344 46.0283 10.32C46.0283 7.31201 46.8763 4.97601 48.5723 3.31201C50.3003 1.61601 52.6683 0.768005 55.6763 0.768005C58.6203 0.768005 60.8923 1.63201 62.4923 3.36001C63.9963 5.02401 64.7483 7.34401 64.7483 10.32H58.3163C58.3163 9.39201 58.0603 8.56001 57.5483 7.82401C57.0683 7.05601 56.3803 6.67201 55.4843 6.67201C54.5243 6.67201 53.7883 7.05601 53.2763 7.82401C52.7963 8.46401 52.5563 9.29601 52.5563 10.32C52.5563 12.08 53.6443 13.664 55.8203 15.072C57.8363 16.352 59.8683 17.648 61.9163 18.96C64.0923 20.816 65.1803 23.2 65.1803 26.112ZM91.8285 36H85.3485V21.312H75.2685V36H68.7885V1.44001H75.2685V15.216H85.3485V1.44001H91.8285V36ZM102.593 36H96.5453V28.752H102.593V36Z" fill="#151516"/>
</g>
<defs>
<clipPath id="clip0_6_279">
<rect width="103" height="37" fill="white"/>
</clipPath>
</defs>
</svg>
