<?xml version="1.0" encoding="utf-8"?><svg viewBox="0 0 800 800" xmlns="http://www.w3.org/2000/svg" xmlns:xlink="http://www.w3.org/1999/xlink"><style>:root>svg{display:none}:root>svg:target{display:block}</style><svg viewBox="0 0 512 512" id="arrow" xmlns="http://www.w3.org/2000/svg"><path class="aci-primary" d="M359.873 121.377l-22.627 22.627 95.997 95.997H16v32.001h417.24l-95.994 95.994 22.627 22.627L494.498 256 359.873 121.377z"/></svg><svg viewBox="0 0 24 24" id="burger" xmlns="http://www.w3.org/2000/svg"><path d="M4 18h16M4 12h16M4 6h16"/></svg><svg viewBox="0 0 24 24" id="close" xmlns="http://www.w3.org/2000/svg"><path d="M20.746 3.329a1 1 0 00-1.415 0l-7.294 7.294-7.294-7.294a1 1 0 10-1.414 1.414l7.294 7.294-7.294 7.294a1 1 0 001.414 1.415l7.294-7.295 7.294 7.295a1 1 0 001.415-1.415l-7.295-7.294 7.295-7.294a1 1 0 000-1.414z"/></svg><svg viewBox="0 0 502.664 502.664" id="icon" xmlns="http://www.w3.org/2000/svg"><path d="M153.821 358.226L0 274.337v-46.463l153.821-83.414v54.574L46.636 250.523l107.185 53.431v54.272zm26.273 29.358L282.103 115.08h32.227L212.084 387.584h-31.99zm168.749-29.358v-54.272l107.164-52.999-107.164-52.59v-53.927l153.821 83.522v46.183l-153.821 84.083z"/></svg></svg>